<svg width="26" height="26" viewBox="0 0 26 26" fill="none" xmlns="http://www.w3.org/2000/svg">
<g id="Frame 545">
<g clip-path="url(#clip0_42_34)">
<rect width="26" height="26" rx="13" transform="matrix(-1 0 0 1 26 0)" fill="#1674D4"/>
<path id="Union" d="M15 -1.5H15.5V-1V8.37883L22.3458 1.53302L22.6994 1.17947L23.0529 1.53302L24.4671 2.94724L24.8207 3.30079L24.4671 3.65435L17.6215 10.5H27H27.5V11V15V15.5H27H17.6212L24.4668 22.3457L24.8204 22.6992L24.4668 23.0528L23.0526 24.467L22.6991 24.8205L22.3455 24.467L15.5 17.6215V27V27.5H15H11H10.5V27V17.6215L3.65449 24.467L3.30093 24.8205L2.94738 24.467L1.53316 23.0528L1.17961 22.6992L1.53316 22.3457L8.37883 15.5H-1H-1.5V15V11V10.5H-1H8.37853L1.53287 3.65435L1.17932 3.30079L1.53287 2.94724L2.94709 1.53302L3.30064 1.17947L3.65419 1.53302L10.5 8.37883V-1V-1.5H11H15Z" fill="#F22544" stroke="white"/>
</g>
</g>
<defs>
<clipPath id="clip0_42_34">
<rect width="26" height="26" rx="13" transform="matrix(-1 0 0 1 26 0)" fill="white"/>
</clipPath>
</defs>
</svg>
