<svg width="36" height="27" viewBox="0 0 36 27" fill="none" xmlns="http://www.w3.org/2000/svg">
<path id="Vector" d="M36.001 23.8505C36.001 25.3419 34.7913 26.5506 33.3008 26.5506H2.69917C1.20869 26.5506 -0.000976562 25.3419 -0.000976562 23.8505H13.8805L14.3998 24.7505H21.6002L22.1195 23.8505H36.001ZM33.3008 0.449219V19.3502C33.3008 20.8407 32.0912 22.0504 30.6007 22.0504H5.39932C3.90884 22.0504 2.69917 20.8407 2.69917 19.3502V0.449219H33.3008ZM10.7996 8.54966H8.99951V15.75H10.7996V8.54966ZM16.1999 6.74956H14.3998V13.95H16.1999V6.74956ZM21.6002 8.54966H19.8001V15.75H21.6002V8.54966ZM27.0005 4.94946H25.2004V12.1499H27.0005V4.94946Z" fill="#F04F48"/>
</svg>
