<svg width="36" height="36" viewBox="0 0 36 36" fill="none" xmlns="http://www.w3.org/2000/svg">
<path id="Vector" d="M28.074 0.616699L0.5 5.47772L2.931 19.2647L5.5 18.8117V7.6167H29.308L28.074 0.616699ZM35.5 9.6167H7.5V23.6157H20.5C20.5 20.3077 23.191 17.6177 26.5 17.6177C29.809 17.6177 32.5 20.3077 32.5 23.6157H35.5V9.6167ZM26.5 19.6177C24.291 19.6177 22.5 21.4077 22.5 23.6167C22.5 25.8267 24.291 27.6167 26.5 27.6167C28.709 27.6167 30.5 25.8267 30.5 23.6167C30.5 21.4077 28.709 19.6177 26.5 19.6177ZM18.5 27.6177C16.291 27.6177 14.5 29.4077 14.5 31.6167C14.5 33.8267 16.291 35.6167 18.5 35.6167C20.709 35.6167 22.5 33.8267 22.5 31.6167C22.5 29.4077 20.709 27.6177 18.5 27.6177Z" fill="#F04F48"/>
</svg>
