<svg width="120" height="58" viewBox="0 0 120 58" fill="none" xmlns="http://www.w3.org/2000/svg">
<g id="Group 498">
<path id="Fill 1" fill-rule="evenodd" clip-rule="evenodd" d="M14 31.0044H22V8.00439H14V31.0044ZM98 50.0044H106V27.0044H98V50.0044ZM28 44.0044H36V14.0044H28V44.0044ZM84 44.0044H92V14.0044H84V44.0044ZM0 44.0044H8V28.0044H0V44.0044ZM112 30.0044H120V14.0044H112V30.0044Z" fill="white" fill-opacity="0.6"/>
<path id="Union" fill-rule="evenodd" clip-rule="evenodd" d="M50 15.0044H42V0.00439453H50V15.0044ZM50 57.0044H42V21.0044H50V57.0044ZM56 57.0044H64V0.00439453H56V57.0044ZM70 15.0044H78V0.00439453H70V15.0044ZM70 57.0044H78V21.0044H70V57.0044Z" fill="white"/>
</g>
</svg>
