<svg width="48" height="48" viewBox="0 0 48 48" fill="none" xmlns="http://www.w3.org/2000/svg">
<g id="Twitter_Logo_Blue 1" clip-path="url(#clip0_1_286)">
<path id="Vector" d="M0 24C0 37.2548 10.7452 48 24 48C37.2548 48 48 37.2548 48 24C48 10.7452 37.2548 0 24 0C10.7452 0 0 10.7452 0 24Z" fill="white"/>
<path id="Vector_2" d="M19.3118 34.2688C28.8479 34.2688 34.0637 26.3683 34.0637 19.517C34.0637 19.2926 34.0637 19.0692 34.0485 18.8468C35.0632 18.1129 35.9391 17.2041 36.6352 16.1631C35.6889 16.5824 34.6851 16.8574 33.6573 16.9788C34.7396 16.3309 35.5497 15.3118 35.9367 14.1112C34.919 14.7151 33.8055 15.1407 32.6445 15.3696C31.8628 14.5384 30.8289 13.988 29.7029 13.8036C28.5768 13.6192 27.4214 13.811 26.4154 14.3494C25.4094 14.8878 24.6088 15.7428 24.1377 16.782C23.6665 17.8212 23.551 18.9867 23.809 20.0982C21.7477 19.9949 19.7311 19.4592 17.8903 18.526C16.0494 17.5928 14.4254 16.2828 13.1236 14.6813C12.4606 15.8226 12.2576 17.1738 12.5558 18.4596C12.854 19.7455 13.6311 20.8693 14.7288 21.6023C13.9037 21.5779 13.0966 21.3553 12.3756 20.9534C12.3756 20.9746 12.3756 20.9968 12.3756 21.0191C12.376 22.2161 12.7903 23.3762 13.5485 24.3025C14.3066 25.2288 15.3618 25.8644 16.5351 26.1014C15.7718 26.3096 14.971 26.34 14.1941 26.1904C14.5254 27.2206 15.1704 28.1215 16.0389 28.767C16.9074 29.4126 17.956 29.7706 19.0379 29.7909C17.202 31.2338 14.9341 32.0171 12.599 32.0147C12.1865 32.0139 11.7744 31.9889 11.3648 31.9399C13.7358 33.4615 16.4946 34.2685 19.3118 34.2648" fill="#1DA1F2"/>
</g>
<defs>
<clipPath id="clip0_1_286">
<rect width="48" height="48" fill="white"/>
</clipPath>
</defs>
</svg>
