<svg width="48" height="48" viewBox="0 0 48 48" fill="none" xmlns="http://www.w3.org/2000/svg">
<g id="Twitter_Logo_Blue 2" clip-path="url(#clip0_1_289)">
<path id="Vector" d="M0 24C0 37.2548 10.7452 48 24 48C37.2548 48 48 37.2548 48 24C48 10.7452 37.2548 0 24 0C10.7452 0 0 10.7452 0 24Z" fill="white"/>
<path id="Vector_2" d="M18.2376 12.8441C18.2376 14.2201 17.2026 15.3231 15.5386 15.3231H15.5076C13.9056 15.3241 12.8716 14.2191 12.8716 12.8441C12.8716 11.4351 13.9386 10.3621 15.5696 10.3621C17.2026 10.3611 18.2076 11.4351 18.2376 12.8441ZM13.1516 31.6371H17.9236V17.2841H13.1516V31.6371ZM29.6356 16.9481C27.1046 16.9481 25.9716 18.3381 25.3346 19.3181V19.3641H25.3036C25.3156 19.3501 25.3266 19.3341 25.3346 19.3181V17.2851H20.5636C20.6256 18.6301 20.5636 31.6381 20.5636 31.6381H25.3346V23.6221C25.3346 23.1901 25.3636 22.7671 25.4916 22.4581C25.8376 21.6041 26.6236 20.7111 27.9376 20.7111C29.6666 20.7111 30.3576 22.0301 30.3576 23.9581V31.6381H35.1286V23.4091C35.1296 18.9971 32.7736 16.9481 29.6356 16.9481Z" fill="#0E76A8"/>
</g>
<defs>
<clipPath id="clip0_1_289">
<rect width="48" height="48" fill="white"/>
</clipPath>
</defs>
</svg>
